<svg width="94" height="132" viewBox="0 0 94 132" fill="none" xmlns="http://www.w3.org/2000/svg">
<path d="M93.6424 132H0.240962V130.128C3.98451 130.128 6.79216 129.005 8.66394 126.759C10.5357 124.388 11.4716 119.896 11.4716 113.282V19.6937C11.4716 13.0801 10.5357 8.65022 8.66394 6.4041C6.79216 4.03318 3.98451 2.84772 0.240962 2.84772V0.975951H45.5378V2.84772C43.6661 2.84772 41.7943 3.09729 39.9225 3.59643C38.1755 4.09557 36.6157 5.03146 35.2431 6.4041C33.8705 7.65194 32.7474 9.39893 31.8739 11.6451C31.0004 13.7664 30.5637 16.4493 30.5637 19.6937V129.567H63.694C68.8102 129.567 73.1153 128.444 76.6093 126.198C80.228 123.951 83.1605 121.331 85.4066 118.336C87.6527 115.341 89.2749 112.284 90.2732 109.164C91.2715 105.92 91.7706 103.362 91.7706 101.49H93.6424V132Z" fill="white"/>
</svg>
