<svg width="93" height="135" viewBox="0 0 93 135" fill="none" xmlns="http://www.w3.org/2000/svg">
<path d="M87.6527 52.701H85.7809C83.7844 43.3421 81.0391 35.4807 77.5451 29.1167C74.176 22.7526 70.37 17.6988 66.1273 13.9553C62.0094 10.087 57.7044 7.3417 53.2121 5.7195C48.8446 3.97252 44.7267 3.09902 40.8584 3.09902C38.4875 3.09902 36.1166 3.47338 33.7457 4.22208C31.3748 4.84601 29.2534 5.90668 27.3817 7.4041C25.5099 8.77673 23.9501 10.5237 22.7022 12.6451C21.5792 14.6416 21.0176 16.9501 21.0176 19.5706C21.0176 24.1877 22.7646 28.4303 26.2586 32.2987C29.7526 36.167 34.12 39.9729 39.361 43.7165C44.7267 47.3352 50.4668 51.0788 56.5813 54.9471C62.8205 58.8154 68.5606 63.0581 73.8016 67.6752C79.1674 72.1674 83.5972 77.2212 87.0912 82.8365C90.5852 88.4518 92.3322 94.8782 92.3322 102.116C92.3322 107.856 91.2091 112.785 88.963 116.903C86.7168 121.021 83.6596 124.452 79.7913 127.198C75.9229 129.818 71.4307 131.752 66.3145 133C61.1983 134.248 55.7078 134.872 49.8429 134.872C45.8498 134.872 41.4823 134.497 36.7405 133.749C32.1235 133.125 27.5688 132.251 23.0766 131.128C18.5843 130.005 14.404 128.695 10.5357 127.198C6.79216 125.7 3.79733 124.14 1.5512 122.518L0.989671 82.275H2.86144C4.858 91.7586 7.72805 99.6825 11.4716 106.046C15.3399 112.286 19.5826 117.34 24.1996 121.208C28.8167 124.951 33.5585 127.634 38.4251 129.256C43.4165 130.879 47.9711 131.69 52.089 131.69C54.9591 131.69 57.8291 131.253 60.6992 130.38C63.5693 129.506 66.1273 128.196 68.3735 126.449C70.6196 124.702 72.429 122.58 73.8016 120.085C75.299 117.589 76.0477 114.719 76.0477 111.475C76.0477 105.36 74.3007 99.932 70.8068 95.1902C67.3128 90.4484 62.8829 86.0185 57.5172 81.9006C52.2762 77.6579 46.5361 73.6648 40.2969 69.9213C34.1824 66.053 28.4423 62.0598 23.0766 57.9419C17.8356 53.824 13.4682 49.4566 9.97418 44.8395C6.4802 40.0977 4.73321 34.7944 4.73321 28.9295C4.73321 23.8133 5.6691 19.4458 7.54087 15.8271C9.53743 12.2083 12.2827 9.21347 15.7767 6.84256C19.2706 4.47165 23.3262 2.78706 27.9432 1.78878C32.685 0.665712 37.7388 0.104181 43.1045 0.104181C46.9729 0.104181 51.0284 0.478534 55.2711 1.22724C59.5137 1.85116 63.5693 2.72466 67.4376 3.84772C71.4307 4.97078 75.1118 6.28103 78.481 7.77845C81.975 9.27587 84.8451 10.8357 87.0912 12.4579L87.6527 52.701Z" fill="white"/>
</svg>
